#!OML:ASF E:\Steps\Project 1\Capture day 1\Session 2\Subject.ASF
:FULLY-SPECIFIED
:DEGREES
149
root 8.79462 16.306 30.2318 -151.795 0.608624 -179.771
lowerback -30.3579 -2.05138 -3.77169
upperback -2.48772 -0.431989 -0.157308
thorax 13.1904 -0.000466699 1.80145
lowerneck 0.321801 -1.64598 -4.08102
upperneck -11.8038 -0.826042 8.7245
head -3.47716 -0.322376 3.34145
rclavicle -1.59028e-015 2.26615e-014
rhumerus -34.4815 -18.839 -81.0817
rradius 28.2941
rwrist 0.299496
rhand -9.80583 -50.6869
rfingers 7.12502
rthumb 16.1706 -80.0324
lclavicle -1.59028e-015 2.26615e-014
lhumerus -28.5415 5.64757 82.3488
lradius 19.0356
lwrist -7.87697
lhand -20.5768 -14.3794
lfingers 7.12502
lthumb 5.78298 15.5217
rfemur -24.5027 7.14855 18.6077
rtibia 7.87231
rfoot -20.0717 -9.61654
rtoes -31.197
lfemur -23.9328 -8.40648 -17.4362
ltibia 6.6948
lfoot -8.59105 4.73053
ltoes -40.5961
150
root 8.79741 16.3054 30.2311 -151.784 0.615023 -179.761
lowerback -30.3548 -2.04832 -3.77545
upperback -2.49912 -0.423701 -0.16539
thorax 13.1755 0.00461729 1.79813
lowerneck 0.237898 -1.62632 -4.08005
upperneck -11.7186 -0.803399 8.73436
head -3.43907 -0.309334 3.34211
rclavicle -1.98785e-016 -5.1684e-015
rhumerus -34.5065 -18.8457 -81.0759
rradius 28.3046
rwrist 0.375778
rhand -9.82258 -50.6841
rfingers 7.12502
rthumb 16.1545 -80.0309
lclavicle -1.98785e-016 -5.1684e-015
lhumerus -28.5164 5.6611 82.3295
lradius 19.0033
lwrist -7.91676
lhand -20.6656 -14.5696
lfingers 7.12502
lthumb 5.69725 15.3338
rfemur -24.5172 7.07103 18.6655
rtibia 7.89351
rfoot -20.0792 -9.56903
rtoes -31.6254
lfemur -23.915 -8.47751 -17.4062
ltibia 6.63024
lfoot -8.5519 4.8485
ltoes -40.7432
151
root 8.80166 16.3057 30.2318 -151.753 0.639728 -179.788
lowerback -30.3565 -2.06944 -3.86195
upperback -2.51994 -0.417554 -0.164609
thorax 13.1526 0.00550298 1.84844
lowerneck 0.17084 -1.61096 -4.07583
upperneck -11.626 -0.789842 8.73882
head -3.4011 -0.301777 3.34091
rclavicle -9.93923e-016 -1.35174e-014
rhumerus -34.5395 -18.8355 -81.049
rradius 28.301
rwrist 0.436175
rhand -9.83675 -50.6519
rfingers 7.12502
rthumb 16.1409 -79.9998
lclavicle -9.93923e-016 -1.35174e-014
lhumerus -28.5348 5.6282 82.3351
lradius 19.0432
lwrist -7.93672
lhand -20.752 -14.6768
lfingers 7.12502
lthumb 5.61381 15.2289
rfemur -24.5727 7.04625 18.6599
rtibia 7.91675
rfoot -20.0626 -9.59228
rtoes -31.9117
lfemur -23.9476 -8.39155 -17.4494
ltibia 6.65853
lfoot -8.51144 4.80913
ltoes -41.3172
152
root 8.80534 16.3072 30.2321 -151.742 0.586226 -179.786
lowerback -30.3662 -2.09188 -3.8841
upperback -2.50658 -0.442277 -0.150208
thorax 13.1737 -0.00841275 1.86622
lowerneck 0.0785752 -1.58212 -4.11037
upperneck -11.5227 -0.764115 8.71421
head -3.35659 -0.285411 3.33671
rclavicle 2.08724e-015 3.18055e-015
rhumerus -34.5053 -18.685 -81.0986
rradius 28.2868
rwrist 0.213151
rhand -9.85965 -50.5834
rfingers 7.12502
rthumb 16.1188 -79.9331
lclavicle 2.08724e-015 3.18055e-015
lhumerus -28.5019 5.60539 82.3537
lradius 19.0592
lwrist -8.03114
lhand -20.9216 -14.6165
lfingers 7.12502
lthumb 5.45003 15.2935
rfemur -24.57 7.11495 18.6784
rtibia 7.88897
rfoot -20.048 -9.74916
rtoes -32.1578
lfemur -23.9861 -8.45568 -17.4003
ltibia 6.72163
lfoot -8.56512 4.82383
ltoes -42.0251
153
root 8.80704 16.3071 30.2316 -151.741 0.546135 -179.771
lowerback -30.3727 -2.09882 -3.86525
upperback -2.49882 -0.459775 -0.140717
thorax 13.1865 -0.0163417 1.85937
lowerneck 0.013811 -1.54152 -4.14098
upperneck -11.4486 -0.719374 8.69108
head -3.32665 -0.260346 3.33237
rclavicle -4.02539e-015 -1.47101e-014
rhumerus -34.5002 -18.5895 -81.1206
rradius 28.3025
rwrist 0.193627
rhand -9.88456 -50.5705
rfingers 7.12502
rthumb 16.0948 -79.9221
lclavicle -4.02539e-015 -1.47101e-014
lhumerus -28.4985 5.51178 82.3997
lradius 19.0969
lwrist -7.9359
lhand -21.0918 -14.454
lfingers 7.12502
lthumb 5.28571 15.46
rfemur -24.529 7.24429 18.6682
rtibia 7.83417
rfoot -20.0694 -9.78546
rtoes -31.5842
lfemur -24.0203 -8.58681 -17.3321
ltibia 6.76956
lfoot -8.63279 4.89994
ltoes -42.1838
154
root 8.80662 16.3061 30.2316 -151.696 0.589145 -179.806
lowerback -30.4161 -2.1113 -3.91034
upperback -2.51123 -0.453531 -0.14342
thorax 13.1912 -0.0136722 1.88334
lowerneck -0.0180625 -1.50757 -4.13849
upperneck -11.4159 -0.677301 8.67356
head -3.31457 -0.23835 3.32496
rclavicle 4.27387e-015 -1.86858e-014
rhumerus -34.5423 -18.4889 -81.1294
rradius 28.361
rwrist 0.166766
rhand -9.90752 -50.5156
rfingers 7.12502
rthumb 16.0727 -79.869
lclavicle 4.27387e-015 -1.86858e-014
lhumerus -28.5316 5.40423 82.467
lradius 19.1734
lwrist -7.73922
lhand -21.1457 -14.2087
lfingers 7.12502
lthumb 5.23369 15.7067
rfemur -24.5847 7.28442 18.5819
rtibia 7.83877
rfoot -20.0825 -9.68667
rtoes -31.0845
lfemur -24.1144 -8.44855 -17.4259
ltibia 6.86284
lfoot -8.60412 4.85999
ltoes -42.4342
155
root 8.80697 16.3054 30.231 -151.639 0.642399 -179.906
lowerback -30.4856 -2.13115 -4.01871
upperback -2.51522 -0.427882 -0.178502
thorax 13.2158 -0.00484669 1.91412
lowerneck -0.0419049 -1.50046 -4.10673
upperneck -11.3839 -0.667972 8.67532
head -3.3019 -0.234226 3.31945
rclavicle -1.39149e-015 -2.78299e-015
rhumerus -34.5326 -18.4053 -81.1852
rradius 28.383
rwrist -0.0954138
rhand -9.91523 -50.3802
rfingers 7.12502
rthumb 16.0653 -79.7342
lclavicle -1.39149e-015 -2.78299e-015
lhumerus -28.5185 5.29912 82.5278
lradius 19.1907
lwrist -7.52719
lhand -21.2804 -14.1052
lfingers 7.12502
lthumb 5.10357 15.8133
rfemur -24.681 7.17986 18.4725
rtibia 7.9062
rfoot -20.1072 -9.66758
rtoes -31.4051
lfemur -24.1816 -8.32515 -17.5886
ltibia 6.92021
lfoot -8.57334 4.79512
ltoes -42.2428
